<?xml version="1.0" standalone="no"?>
<!DOCTYPE svg PUBLIC "-//W3C//DTD SVG 20010904//EN"
 "http://www.w3.org/TR/2001/REC-SVG-20010904/DTD/svg10.dtd">
<svg version="1.0" xmlns="http://www.w3.org/2000/svg"
 width="24px" height="24px" viewBox="0 0 24 24"
 preserveAspectRatio="xMidYMid meet">
<metadata>
Created by potrace 1.15, written by Peter Selinger 2001-2017
</metadata>
<g transform="translate(0.000000,1006.000000) scale(0.100000,-0.100000)"
fill="#ffeb3b" stroke="none">
<path d="M3200 10027 c-47 -19 -127 -55 -178 -81 l-92 -46 -263 11 c-359 16
-746 7 -897 -20 -214 -37 -349 -99 -448 -206 -74 -80 -123 -158 -222 -355 -77
-152 -89 -171 -164 -246 -96 -96 -168 -134 -411 -219 -195 -69 -339 -137 -426
-203 -89 -68 -99 -85 -99 -175 0 -97 20 -172 79 -292 135 -275 366 -496 621
-594 137 -53 264 -74 450 -74 108 0 200 5 265 16 235 39 297 47 416 53 296 16
511 -49 665 -201 108 -106 155 -188 285 -500 l118 -280 -40 -6 c-43 -6 -62
-25 -78 -80 -46 -153 -3 -257 119 -292 30 -8 74 -18 97 -22 l41 -6 -31 -51
c-29 -47 -32 -59 -35 -154 -7 -179 36 -296 135 -368 58 -43 125 -60 193 -51
46 6 50 5 59 -17 5 -12 47 -104 94 -204 81 -172 85 -185 96 -285 20 -174 67
-463 111 -674 83 -403 92 -456 93 -570 1 -91 -3 -118 -20 -156 -29 -65 -75
-113 -156 -163 -92 -56 -160 -80 -474 -165 -509 -138 -547 -158 -584 -311 -16
-67 -16 -282 1 -400 50 -369 166 -711 314 -934 90 -136 169 -196 256 -196 124
0 267 159 278 310 5 74 -46 296 -165 711 -4 13 18 22 114 47 216 57 339 74
553 77 168 2 203 5 252 22 75 28 132 68 204 145 106 115 186 280 238 490 17
70 36 128 41 128 23 0 129 -95 176 -158 70 -94 180 -321 238 -492 82 -244 159
-569 202 -855 46 -301 29 -1027 -27 -1162 -11 -29 -17 -33 -52 -33 -128 0
-373 -135 -429 -235 -15 -29 -24 -70 -31 -147 -11 -111 -4 -170 23 -212 67
-102 478 -162 670 -98 33 11 99 32 148 47 171 54 247 141 268 307 6 46 31 198
55 338 l45 255 -11 325 c-40 1264 -48 1615 -37 1691 l8 57 247 5 c397 9 648
60 949 194 268 120 471 268 860 630 67 62 138 119 160 128 134 57 345 9 632
-141 l124 -65 -97 105 c-53 58 -96 109 -96 113 1 12 185 -183 257 -272 85
-105 186 -256 258 -386 170 -306 243 -406 431 -589 77 -74 231 -209 344 -299
279 -224 665 -606 768 -759 l35 -53 -6 -252 c-6 -228 -32 -697 -39 -702 -2 -1
-39 -18 -83 -36 -215 -93 -334 -233 -343 -406 -5 -93 1 -115 43 -162 80 -88
252 -127 525 -117 91 3 212 12 270 20 102 14 106 15 138 52 44 51 87 142 114
239 23 88 26 190 20 827 -2 208 2 336 10 400 19 136 15 285 -11 398 -45 196
-135 416 -212 518 -22 29 -54 86 -71 125 -29 70 -130 410 -144 483 l-7 37 44
-30 c70 -48 249 -151 454 -263 211 -115 319 -184 373 -238 70 -70 140 -248
212 -532 35 -138 110 -510 110 -544 0 -7 -44 -34 -97 -61 -77 -38 -113 -63
-169 -119 -102 -103 -144 -202 -144 -343 0 -131 47 -215 145 -258 152 -68 356
-56 570 33 201 84 250 109 268 139 49 85 99 402 101 643 l1 135 -187 555
c-102 305 -196 591 -208 635 -27 99 -51 141 -147 258 -157 190 -693 700 -926
880 -83 65 -135 133 -200 262 -91 184 -213 542 -272 800 -80 353 -107 429
-251 716 -97 193 -221 391 -342 544 -53 66 -74 103 -83 140 -42 178 -163 574
-234 765 -88 237 -182 425 -247 493 l-30 32 6 -65 c3 -36 8 -132 11 -215 l6
-150 -36 75 c-92 192 -273 406 -438 518 -98 68 -237 134 -349 166 -98 28 -271
56 -344 56 l-49 -1 35 -27 c338 -263 629 -537 749 -707 256 -362 238 -705 -42
-835 -141 -66 -204 -71 -1150 -90 -1226 -24 -1922 -6 -2327 60 -426 70 -777
218 -992 418 l-46 43 25 49 25 49 -26 83 c-45 137 -97 201 -156 189 -8 -1 -31
-19 -52 -38 -20 -19 -41 -32 -47 -28 -33 20 -96 176 -253 625 l-99 285 59 125
c33 69 85 193 117 275 57 146 59 153 63 267 5 125 -7 232 -39 353 -39 151 -92
235 -192 302 -39 26 -135 100 -212 163 -325 266 -467 356 -575 366 -46 4 -69
-1 -140 -29z"/>
</g>
</svg>
